<svg xmlns="http://www.w3.org/2000/svg" viewBox="0 0 600 215" width="600pt" height="215pt">
<rect width="600" height="215" fill="#FBF9F6"/>
<rect x="331.1" y="16" width="242.9" height="163" fill="#EFEAE1"/>
<rect x="257.2" y="16" width="73.9" height="163" fill="#F0EBE3"/>
<line x1="67.1" y1="10" x2="67.1" y2="179" stroke="#14202E" stroke-width="1" stroke-dasharray="3 3"/>
<line x1="331.1" y1="10" x2="331.1" y2="179" stroke="#14202E" stroke-width="1" stroke-dasharray="3 3"/>
<line x1="46" y1="67.7" x2="574" y2="67.7" stroke="#DED7CC" stroke-width="0.8"/>
<line x1="46" y1="56.4" x2="574" y2="56.4" stroke="#E6E0D6" stroke-width="0.7"/>
<text x="41.0" y="60.4" font-family="Arial, Helvetica, sans-serif" font-size="12" font-weight="normal" fill="#5C6674" text-anchor="end">2,000</text>
<polyline points="46.0,43.9 56.6,47.4 67.1,47.5 77.7,41.6 88.2,40.6 98.8,39.9 109.4,40.3 119.9,40.4 130.5,47.7 141.0,37.8 151.6,51.2 162.2,41.5 172.7,40.2 183.3,40.1 193.8,44.4 204.4,47.2 215.0,39.0 225.5,36.5 236.1,35.2 246.6,34.0 257.2,38.6 267.8,35.4 278.3,42.6 288.9,40.8 299.4,37.6 310.0,43.5 320.6,41.0 331.1,39.9" fill="none" stroke="#123A5E" stroke-width="1.6" stroke-linejoin="round"/>
<polyline points="331.1,41.6 341.7,42.5 352.2,42.5 362.8,41.7 373.4,41.8 383.9,42.2 394.5,42.8 405.0,42.0 415.6,41.4 426.2,41.2 436.7,41.2 447.3,39.4 457.8,39.0 468.4,40.1 479.0,41.6 489.5,41.2 500.1,42.6 510.6,45.0 521.2,46.5 531.8,47.7 542.3,48.7 552.9,55.3 563.4,62.2 574.0,65.1" fill="none" stroke="#A8480F" stroke-width="1.3" stroke-dasharray="3 3" stroke-opacity="0.8" stroke-linejoin="round"/>
<polyline points="77.7,41.6 88.2,39.2 98.8,36.6 109.4,35.1 119.9,36.0 130.5,37.0 141.0,39.9 151.6,43.3 162.2,45.9 172.7,46.4 183.3,43.8 193.8,43.0 204.4,44.2 215.0,44.7 225.5,43.0 236.1,42.1 246.6,41.3 257.2,40.9 267.8,40.4 278.3,41.0 288.9,42.0 299.4,42.3 310.0,42.0 320.6,41.5 331.1,41.6" fill="none" stroke="#A8480F" stroke-width="2" stroke-dasharray="6 3" stroke-linejoin="round"/>
<text x="51.0" y="28.0" font-family="'Times New Roman', Times, serif" font-size="13" font-weight="bold" fill="#14202E" text-anchor="start">Depression</text>
<text x="570.0" y="28.0" font-family="Arial, Helvetica, sans-serif" font-size="12" font-weight="bold" fill="#A8480F" text-anchor="end">8.7% sMAPE</text>
<line x1="46" y1="123.3" x2="574" y2="123.3" stroke="#DED7CC" stroke-width="0.8"/>
<line x1="46" y1="93.8" x2="574" y2="93.8" stroke="#E6E0D6" stroke-width="0.7"/>
<text x="41.0" y="97.8" font-family="Arial, Helvetica, sans-serif" font-size="12" font-weight="normal" fill="#5C6674" text-anchor="end">200</text>
<polyline points="46.0,109.2 56.6,113.4 67.1,118.8 77.7,105.2 88.2,118.5 98.8,114.6 109.4,111.9 119.9,103.1 130.5,111.0 141.0,97.7 151.6,112.8 162.2,109.2 172.7,111.6 183.3,112.2 193.8,112.8 204.4,114.9 215.0,92.6 225.5,97.1 236.1,97.4 246.6,111.0 257.2,113.7 267.8,107.0 278.3,110.1 288.9,108.0 299.4,108.0 310.0,100.1 320.6,111.0 331.1,105.5" fill="none" stroke="#123A5E" stroke-width="1.6" stroke-linejoin="round"/>
<polyline points="331.1,108.2 341.7,107.2 352.2,106.2 362.8,105.3 373.4,104.7 383.9,104.5 394.5,104.7 405.0,105.2 415.6,106.0 426.2,106.7 436.7,107.3 447.3,107.7 457.8,107.9 468.4,108.1 479.0,108.3 489.5,109.0 500.1,110.1 510.6,111.7 521.2,113.6 531.8,115.7 542.3,117.5 552.9,118.7 563.4,119.1 574.0,118.7" fill="none" stroke="#A8480F" stroke-width="1.3" stroke-dasharray="3 3" stroke-opacity="0.8" stroke-linejoin="round"/>
<polyline points="77.7,108.5 88.2,107.6 98.8,107.4 109.4,107.7 119.9,108.5 130.5,109.5 141.0,110.3 151.6,110.9 162.2,111.2 172.7,111.0 183.3,110.6 193.8,109.9 204.4,109.2 215.0,108.4 225.5,107.8 236.1,107.5 246.6,107.4 257.2,107.6 267.8,108.0 278.3,108.5 288.9,109.0 299.4,109.2 310.0,109.2 320.6,108.9 331.1,108.2" fill="none" stroke="#A8480F" stroke-width="2" stroke-dasharray="6 3" stroke-linejoin="round"/>
<text x="51.0" y="83.7" font-family="'Times New Roman', Times, serif" font-size="13" font-weight="bold" fill="#14202E" text-anchor="start">Parkinson</text>
<text x="570.0" y="83.7" font-family="Arial, Helvetica, sans-serif" font-size="12" font-weight="bold" fill="#A8480F" text-anchor="end">10.6% sMAPE</text>
<line x1="46" y1="179.0" x2="574" y2="179.0" stroke="#DED7CC" stroke-width="0.8"/>
<line x1="46" y1="158.9" x2="574" y2="158.9" stroke="#E6E0D6" stroke-width="0.7"/>
<text x="41.0" y="162.9" font-family="Arial, Helvetica, sans-serif" font-size="12" font-weight="normal" fill="#5C6674" text-anchor="end">50</text>
<polyline points="46.0,146.1 56.6,172.5 67.1,170.8 77.7,162.3 88.2,162.3 98.8,162.3 109.4,158.1 119.9,157.2 130.5,170.0 141.0,168.3 151.6,164.9 162.2,163.2 172.7,169.1 183.3,160.6 193.8,165.7 204.4,175.1 215.0,159.8 225.5,153.0 236.1,162.3 246.6,157.2 257.2,170.0 267.8,165.7 278.3,175.9 288.9,155.5 299.4,175.9 310.0,153.0 320.6,165.7 331.1,167.4" fill="none" stroke="#123A5E" stroke-width="1.6" stroke-linejoin="round"/>
<polyline points="331.1,166.8 341.7,166.7 352.2,166.3 362.8,165.8 373.4,165.2 383.9,164.6 394.5,164.3 405.0,164.1 415.6,164.3 426.2,164.5 436.7,164.8 447.3,165.1 457.8,165.4 468.4,165.6 479.0,165.9 489.5,166.5 500.1,167.4 510.6,168.7 521.2,170.2 531.8,171.9 542.3,173.3 552.9,174.3 563.4,174.6 574.0,174.2" fill="none" stroke="#A8480F" stroke-width="1.3" stroke-dasharray="3 3" stroke-opacity="0.8" stroke-linejoin="round"/>
<polyline points="77.7,164.2 88.2,163.4 98.8,163.2 109.4,163.5 119.9,164.1 130.5,165.0 141.0,165.8 151.6,166.6 162.2,167.1 172.7,167.5 183.3,167.6 193.8,167.6 204.4,167.5 215.0,167.2 225.5,166.9 236.1,166.4 246.6,165.9 257.2,165.5 267.8,165.3 278.3,165.2 288.9,165.4 299.4,165.8 310.0,166.2 320.6,166.6 331.1,166.8" fill="none" stroke="#A8480F" stroke-width="2" stroke-dasharray="6 3" stroke-linejoin="round"/>
<text x="51.0" y="139.3" font-family="'Times New Roman', Times, serif" font-size="13" font-weight="bold" fill="#14202E" text-anchor="start">Alzheimer</text>
<text x="570.0" y="139.3" font-family="Arial, Helvetica, sans-serif" font-size="12" font-weight="bold" fill="#A8480F" text-anchor="end">14.4% sMAPE</text>
<text x="65.6" y="191.0" font-family="Arial, Helvetica, sans-serif" font-size="12" font-weight="normal" fill="#5C6674" text-anchor="middle">Feb</text>
<text x="154.6" y="191.0" font-family="Arial, Helvetica, sans-serif" font-size="12" font-weight="normal" fill="#5C6674" text-anchor="middle">Apr</text>
<text x="246.6" y="191.0" font-family="Arial, Helvetica, sans-serif" font-size="12" font-weight="normal" fill="#5C6674" text-anchor="middle">Jun</text>
<text x="338.7" y="191.0" font-family="Arial, Helvetica, sans-serif" font-size="12" font-weight="normal" fill="#5C6674" text-anchor="middle">Aug</text>
<text x="430.7" y="191.0" font-family="Arial, Helvetica, sans-serif" font-size="12" font-weight="normal" fill="#5C6674" text-anchor="middle">Oct</text>
<text x="522.7" y="191.0" font-family="Arial, Helvetica, sans-serif" font-size="12" font-weight="normal" fill="#5C6674" text-anchor="middle">Dec</text>
<text x="569.5" y="191.0" font-family="Arial, Helvetica, sans-serif" font-size="12" font-weight="normal" fill="#5C6674" text-anchor="middle">Jan '27</text>
<text x="71.1" y="11.0" font-family="Arial, Helvetica, sans-serif" font-size="12" font-weight="bold" fill="#14202E" text-anchor="start">training cut-off (W6)</text>
<text x="574.0" y="11.0" font-family="Arial, Helvetica, sans-serif" font-size="12" font-weight="bold" fill="#5C6674" text-anchor="end">not scored</text>
<line x1="46" y1="205" x2="66" y2="205" stroke="#123A5E" stroke-width="1.8"/>
<text x="72.0" y="209.0" font-family="Arial, Helvetica, sans-serif" font-size="12" font-weight="bold" fill="#123A5E" text-anchor="start">Observed</text>
<line x1="142" y1="205" x2="162" y2="205" stroke="#A8480F" stroke-width="2" stroke-dasharray="6 3"/>
<text x="168.0" y="209.0" font-family="Arial, Helvetica, sans-serif" font-size="12" font-weight="bold" fill="#A8480F" text-anchor="start">52-week forecast, issued after the cut-off</text>
<rect x="418" y="198" width="13" height="9" fill="#F0EBE3" stroke="#5C6674" stroke-width="0.6"/>
<text x="435.0" y="209.0" font-family="Arial, Helvetica, sans-serif" font-size="12" font-weight="normal" fill="#5C6674" text-anchor="start">8 weeks ahead when written</text>
</svg>